<svg xmlns="http://www.w3.org/2000/svg" fill="none" viewBox="0 0 28 27"><g clip-path="url(#a)"><path fill="#D4D4D4" d="M18.6 18.556a9.26 9.26 0 1 0 0-18.52 9.26 9.26 0 0 0 0 18.52Z"/><path fill="#5A5A5A" fill-rule="evenodd" d="M7.084 8.235H6a6 6 0 0 0-6 6v6.74a6 6 0 0 0 6 6h6.74a6 6 0 0 0 5.998-5.857c-6.468 0-11.712-5.244-11.712-11.712 0-.395.02-.786.058-1.17Zm2.357 0a9.37 9.37 0 0 0 9.297 10.54l.001-4.54a6 6 0 0 0-6-6H9.441Z" clip-rule="evenodd"/><path fill="#959595" fill-rule="evenodd" d="M18.74 18.776a9.37 9.37 0 0 1-9.297-10.54h3.296a6 6 0 0 1 6 6v4.54Z" clip-rule="evenodd"/></g><defs><clipPath id="a"><path fill="#fff" d="M0 0h28v27H0z"/></clipPath></defs></svg>